<svg version="1.1" id="Layer_1" xmlns="http://www.w3.org/2000/svg" xmlns:xlink="http://www.w3.org/1999/xlink" x="0px" y="0px"
	 width="100%" viewBox="0 0 381 109" enable-background="new 0 0 381 109" xml:space="preserve">
<path fill="#FDFDFD" opacity="1.000000" stroke="none" 
	d="
M297.000000,110.000000 
	C198.000015,110.000000 99.500023,110.000000 1.000026,110.000000 
	C1.000018,73.666679 1.000018,37.333366 1.000009,1.000036 
	C127.999969,1.000024 254.999939,1.000024 381.999939,1.000012 
	C381.999939,37.333298 381.999939,73.666595 381.999969,109.999947 
	C353.833344,110.000000 325.666656,110.000000 297.000000,110.000000 
M217.500000,5.998341 
	C146.044205,5.998341 74.588409,5.998341 2.984124,5.998341 
	C2.984124,38.161587 2.984124,69.891655 2.984124,101.701767 
	C127.758904,101.701767 252.314285,101.701767 376.749268,101.701767 
	C376.749268,69.665527 376.749268,37.930023 376.749268,5.998341 
	C323.793457,5.998341 271.146729,5.998341 217.500000,5.998341 
z"/>
<path fill="#030303" opacity="1.000000" stroke="none" 
	d="
M218.000000,5.998341 
	C271.146729,5.998341 323.793457,5.998341 376.749268,5.998341 
	C376.749268,37.930023 376.749268,69.665527 376.749268,101.701767 
	C252.314285,101.701767 127.758904,101.701767 2.984124,101.701767 
	C2.984124,69.891655 2.984124,38.161587 2.984124,5.998341 
	C74.588409,5.998341 146.044205,5.998341 218.000000,5.998341 
M280.500000,98.999474 
	C311.614532,98.999474 342.729065,98.999474 374.026855,98.999474 
	C374.026855,68.855713 374.026855,39.132202 374.026855,9.211636 
	C251.118896,9.211636 128.411789,9.211636 5.475324,9.211636 
	C5.475324,39.145958 5.475324,68.869110 5.475324,98.999474 
	C96.977768,98.999474 188.238876,98.999474 280.500000,98.999474 
z"/>
<path fill="#FDFDFD" opacity="1.000000" stroke="none" 
	d="
M280.000000,98.999474 
	C188.238876,98.999474 96.977768,98.999474 5.475324,98.999474 
	C5.475324,68.869110 5.475324,39.145958 5.475324,9.211636 
	C128.411789,9.211636 251.118896,9.211636 374.026855,9.211636 
	C374.026855,39.132202 374.026855,68.855713 374.026855,98.999474 
	C342.729065,98.999474 311.614532,98.999474 280.000000,98.999474 
M164.489792,92.997612 
	C168.428009,92.997612 172.366226,92.997612 176.104797,92.997612 
	C176.104797,66.676704 176.104797,40.958248 176.104797,15.320694 
	C121.237312,15.320694 66.697029,15.320694 12.310306,15.320694 
	C12.310306,41.369022 12.310306,67.098099 12.310306,92.997612 
	C62.912159,92.997612 113.202950,92.997612 164.489792,92.997612 
M212.602646,55.743778 
	C214.726746,62.866413 219.182175,66.398720 226.240601,66.556068 
	C232.641403,66.698753 238.032028,63.248917 239.965347,57.772655 
	C241.906754,52.273418 240.585098,46.263245 236.337296,42.745731 
	C231.395828,38.653820 225.797897,38.155701 219.990768,40.655247 
	C214.515305,43.012039 212.104446,47.738430 212.602646,55.743778 
M273.615662,65.930946 
	C275.875946,65.930946 278.136200,65.930946 280.454498,65.930946 
	C280.647339,63.177647 280.802063,60.968124 280.956818,58.758602 
	C281.468872,58.558556 281.980957,58.358509 282.493042,58.158463 
	C283.918213,60.465134 284.849365,63.536942 286.906372,64.865051 
	C288.997559,66.215256 292.198425,65.846786 295.870056,66.366310 
	C293.895172,62.633526 292.524811,60.043365 291.103821,57.357513 
	C295.099152,54.059696 296.269318,49.878517 294.427155,45.243622 
	C292.523285,40.453472 288.210083,39.758781 283.643799,39.841263 
	C280.204987,39.903374 276.764191,39.853546 273.484680,39.853546 
	C273.225311,40.623535 273.036804,40.922729 273.036438,41.222153 
	C273.026611,49.209332 273.036102,57.196533 273.615662,65.930946 
M188.255768,64.439575 
	C198.274612,69.087296 207.279907,65.509819 209.329071,55.767357 
	C205.896393,55.451923 202.900558,54.890289 199.939941,58.047405 
	C197.549805,60.596188 193.415192,60.262211 191.757095,57.170631 
	C190.535782,54.893425 190.541367,50.923054 191.750809,48.630753 
	C193.382767,45.537674 197.469986,45.060841 199.914932,47.673016 
	C202.878418,50.839191 205.837158,50.075516 209.233917,49.809517 
	C207.460190,43.127968 203.215988,39.614681 196.788513,39.192978 
	C191.005417,38.813553 185.617447,41.950691 183.448853,46.959999 
	C180.854538,52.952675 182.353912,59.065331 188.255768,64.439575 
M256.506897,59.324387 
	C252.762695,59.256611 252.385284,56.552727 252.329788,53.785969 
	C252.238113,49.214882 252.304916,44.640617 252.304916,40.192574 
	C249.432877,40.192574 247.219177,40.192574 244.858185,40.192574 
	C244.858185,41.688400 244.856552,42.837749 244.858490,43.987091 
	C244.864929,47.804932 244.781845,51.625576 244.899673,55.440002 
	C245.112732,62.336330 248.952438,66.221687 255.699570,66.538483 
	C262.400879,66.853119 267.095245,63.231754 267.634430,56.594387 
	C268.073181,51.193142 267.723633,45.727867 267.723633,40.223785 
	C265.039856,40.223785 262.693237,40.223785 260.136169,40.223785 
	C260.136169,42.740993 260.136780,44.881840 260.135956,47.022686 
	C260.135101,49.346642 260.486176,51.744301 260.021423,53.971622 
	C259.637695,55.810936 258.288483,57.448814 256.506897,59.324387 
M348.081879,41.471970 
	C343.500336,47.599472 345.236359,52.775192 352.508087,55.110271 
	C354.859680,55.865398 357.056396,57.102757 359.323975,58.119522 
	C359.074677,58.868412 358.825409,59.617302 358.576141,60.366192 
	C356.864258,60.118649 354.323120,60.491238 353.590454,59.511440 
	C351.024811,56.080448 348.294983,57.554768 345.345978,58.085339 
	C347.415802,66.185112 358.065369,69.445221 364.019135,64.138062 
	C367.718994,60.840027 367.355286,54.715641 363.035858,52.215515 
	C360.789093,50.915089 358.066345,50.462006 355.636627,49.440571 
	C354.647797,49.024887 353.730682,48.220383 353.075836,47.366611 
	C352.889252,47.123390 353.678497,45.564095 354.124207,45.512856 
	C355.330841,45.374142 356.650909,45.540192 357.821838,45.912712 
	C360.402161,46.733601 362.918396,47.755856 366.261475,48.991997 
	C364.077271,39.496437 357.570282,37.101402 348.081879,41.471970 
M318.882446,45.213478 
	C315.579376,39.781284 309.669952,37.411991 304.049042,40.192623 
	C301.800354,41.305058 299.366608,44.381855 299.204559,46.716354 
	C299.042419,49.051662 301.213074,51.975498 303.119598,53.883446 
	C304.474182,55.239017 307.151245,55.191532 309.113800,56.053253 
	C310.200989,56.530598 311.123474,57.514431 311.901062,58.451740 
	C312.051727,58.633373 311.237122,60.151112 310.781891,60.196804 
	C309.558258,60.319626 307.621918,60.435921 307.149109,59.745872 
	C304.813049,56.336632 301.896667,57.493996 298.709808,57.845093 
	C299.043304,62.955429 301.760010,65.400879 306.160187,66.152306 
	C310.929443,66.966782 315.641449,66.944054 318.700439,62.364758 
	C321.100800,58.771435 319.887146,54.190659 316.045197,52.057579 
	C314.192932,51.029175 311.973358,50.685562 310.011841,49.823185 
	C308.519135,49.166943 307.171173,48.181568 305.758820,47.342625 
	C306.015411,46.656544 306.272003,45.970459 306.528595,45.284374 
	C308.303833,45.796032 310.212128,46.048763 311.824402,46.877464 
	C314.531036,48.268661 317.014862,49.713226 318.882446,45.213478 
M323.998596,54.486809 
	C323.998596,58.255577 323.998596,62.024342 323.998596,65.670006 
	C330.456818,65.670006 336.347748,65.670006 342.410278,65.670006 
	C342.292908,63.579510 342.194977,61.835388 342.100189,60.147533 
	C331.809753,59.443348 331.809753,59.443348 332.217651,55.665871 
	C335.062378,55.665871 337.963715,55.665871 340.679138,55.665871 
	C340.679138,53.409828 340.679138,51.664295 340.679138,49.938046 
	C331.852478,49.567947 331.852478,49.567947 332.270203,45.705856 
	C335.448425,45.705856 338.680206,45.705856 342.069489,45.705856 
	C341.964386,43.471642 341.882233,41.724915 341.810608,40.202412 
	C335.602173,40.202412 329.874268,40.202412 323.998596,40.202412 
	C323.998596,44.862793 323.998596,49.179245 323.998596,54.486809 
z"/>
<path fill="#010101" opacity="1.000000" stroke="none" 
	d="
M163.991760,92.997612 
	C113.202950,92.997612 62.912159,92.997612 12.310306,92.997612 
	C12.310306,67.098099 12.310306,41.369022 12.310306,15.320694 
	C66.697029,15.320694 121.237312,15.320694 176.104797,15.320694 
	C176.104797,40.958248 176.104797,66.676704 176.104797,92.997612 
	C172.366226,92.997612 168.428009,92.997612 163.991760,92.997612 
M117.443489,39.891335 
	C116.298927,39.679150 115.160141,39.324375 114.008873,39.277763 
	C106.154648,38.959789 100.202820,44.503105 99.961624,52.291252 
	C99.706131,60.540997 105.207458,66.377548 113.315453,66.458801 
	C120.075027,66.526543 125.375000,62.456097 126.787300,56.112267 
	C128.322784,49.215096 125.277969,43.502003 117.443489,39.891335 
M37.748806,47.474957 
	C37.821884,46.054264 37.894962,44.633575 37.980892,42.963036 
	C41.652225,42.963036 44.955750,43.051414 48.246906,42.889107 
	C48.912006,42.856304 49.530327,41.874874 50.170212,41.330795 
	C49.501617,40.829170 48.844753,39.912292 48.162537,39.893032 
	C43.591328,39.763947 39.014725,39.825920 34.437950,39.825920 
	C34.437950,48.915890 34.437950,57.302273 34.437950,66.037979 
	C39.325138,66.037979 43.947712,66.097160 48.565647,65.977448 
	C49.301857,65.958359 50.017254,65.136215 50.742275,64.685341 
	C49.983284,64.099564 49.249340,63.050697 48.460972,63.008057 
	C45.019684,62.821926 41.562592,62.928017 38.118046,62.928017 
	C38.118046,59.772324 38.118046,57.079170 38.118046,53.945660 
	C42.043926,53.945660 45.613277,53.945660 49.182629,53.945660 
	C49.320557,53.527554 49.458485,53.109447 49.596409,52.691338 
	C48.624866,52.138477 47.695129,51.226471 46.673073,51.107487 
	C44.542759,50.859482 42.316986,51.289631 40.225666,50.912739 
	C39.282940,50.742840 38.568260,49.307568 37.748806,47.474957 
M153.260559,61.269012 
	C151.288132,58.397568 149.315720,55.526123 147.290878,52.578362 
	C150.088028,48.489590 152.835724,44.473122 156.052261,39.771305 
	C148.919296,40.006298 149.108765,47.021542 144.732666,49.440563 
	C143.294510,47.374313 142.039108,45.224834 140.436981,43.375797 
	C139.102325,41.835464 137.360748,40.647713 135.799408,39.303795 
	C135.459671,39.691135 135.119949,40.078476 134.780228,40.465816 
	C137.393036,44.596779 142.140060,48.786354 142.028671,52.842506 
	C141.913361,57.042278 137.084030,61.111614 134.326721,65.244736 
	C134.246765,65.364555 134.280685,65.560341 134.220978,66.059914 
	C141.216629,66.221443 140.698563,57.985458 145.184616,56.033020 
	C149.432968,58.807598 149.331238,65.817886 156.445480,66.105148 
	C155.303909,64.322517 154.513519,63.088245 153.260559,61.269012 
M67.758560,66.007263 
	C68.808945,65.454025 70.463921,65.152634 70.815605,64.308357 
	C74.106606,56.407867 77.174271,48.414349 80.306549,40.447742 
	C79.587364,40.049511 78.868172,39.651276 78.148987,39.253040 
	C73.522751,45.346207 72.502686,53.544479 68.425705,60.494850 
	C65.937180,54.272278 63.710670,48.401360 61.199032,42.655067 
	C60.628357,41.349442 59.069702,40.475647 57.965801,39.403088 
	C57.574326,39.758675 57.182850,40.114258 56.791374,40.469845 
	C60.214302,48.871655 63.637230,57.273460 67.758560,66.007263 
M87.889832,43.640953 
	C87.890259,50.256165 87.838806,56.872299 87.955872,63.485447 
	C87.970734,64.325188 88.867485,65.149307 89.355675,65.980667 
	C89.922005,65.230354 90.966743,64.488510 90.980194,63.728401 
	C91.106033,56.619274 91.103714,49.506245 90.990570,42.396698 
	C90.977219,41.557823 90.075203,40.733093 89.585136,39.901810 
	C89.020073,40.825214 88.455002,41.748619 87.889832,43.640953 
z"/>
<path fill="#0A0A0A" opacity="1.000000" stroke="none" 
	d="
M212.507202,55.354641 
	C212.104446,47.738430 214.515305,43.012039 219.990768,40.655247 
	C225.797897,38.155701 231.395828,38.653820 236.337296,42.745731 
	C240.585098,46.263245 241.906754,52.273418 239.965347,57.772655 
	C238.032028,63.248917 232.641403,66.698753 226.240601,66.556068 
	C219.182175,66.398720 214.726746,62.866413 212.507202,55.354641 
M230.146591,47.306057 
	C224.876160,45.587910 220.690201,46.940975 220.427505,51.163963 
	C220.274155,53.629055 221.735535,57.449051 223.629547,58.436703 
	C225.550491,59.438408 229.709763,58.577435 231.436172,56.971119 
	C234.250107,54.352959 233.700928,50.670044 230.146591,47.306057 
z"/>
<path fill="#060606" opacity="1.000000" stroke="none" 
	d="
M273.328979,65.557343 
	C273.036102,57.196533 273.026611,49.209332 273.036438,41.222153 
	C273.036804,40.922729 273.225311,40.623535 273.484680,39.853546 
	C276.764191,39.853546 280.204987,39.903374 283.643799,39.841263 
	C288.210083,39.758781 292.523285,40.453472 294.427155,45.243622 
	C296.269318,49.878517 295.099152,54.059696 291.103821,57.357513 
	C292.524811,60.043365 293.895172,62.633526 295.870056,66.366310 
	C292.198425,65.846786 288.997559,66.215256 286.906372,64.865051 
	C284.849365,63.536942 283.918213,60.465134 282.493042,58.158463 
	C281.980957,58.358509 281.468872,58.558556 280.956818,58.758602 
	C280.802063,60.968124 280.647339,63.177647 280.454498,65.930946 
	C278.136200,65.930946 275.875946,65.930946 273.328979,65.557343 
M287.328522,47.913101 
	C285.267090,47.047047 283.205658,46.180988 280.557037,45.068241 
	C280.557037,48.259487 280.557037,50.164860 280.557037,52.314262 
	C283.922302,52.570141 287.286926,53.574718 287.328522,47.913101 
z"/>
<path fill="#090909" opacity="1.000000" stroke="none" 
	d="
M187.944000,64.227280 
	C182.353912,59.065331 180.854538,52.952675 183.448853,46.959999 
	C185.617447,41.950691 191.005417,38.813553 196.788513,39.192978 
	C203.215988,39.614681 207.460190,43.127968 209.233917,49.809517 
	C205.837158,50.075516 202.878418,50.839191 199.914932,47.673016 
	C197.469986,45.060841 193.382767,45.537674 191.750809,48.630753 
	C190.541367,50.923054 190.535782,54.893425 191.757095,57.170631 
	C193.415192,60.262211 197.549805,60.596188 199.939941,58.047405 
	C202.900558,54.890289 205.896393,55.451923 209.329071,55.767357 
	C207.279907,65.509819 198.274612,69.087296 187.944000,64.227280 
z"/>
<path fill="#090909" opacity="1.000000" stroke="none" 
	d="
M256.936981,59.250168 
	C258.288483,57.448814 259.637695,55.810936 260.021423,53.971622 
	C260.486176,51.744301 260.135101,49.346642 260.135956,47.022686 
	C260.136780,44.881840 260.136169,42.740993 260.136169,40.223785 
	C262.693237,40.223785 265.039856,40.223785 267.723633,40.223785 
	C267.723633,45.727867 268.073181,51.193142 267.634430,56.594387 
	C267.095245,63.231754 262.400879,66.853119 255.699570,66.538483 
	C248.952438,66.221687 245.112732,62.336330 244.899673,55.440002 
	C244.781845,51.625576 244.864929,47.804932 244.858490,43.987091 
	C244.856552,42.837749 244.858185,41.688400 244.858185,40.192574 
	C247.219177,40.192574 249.432877,40.192574 252.304916,40.192574 
	C252.304916,44.640617 252.238113,49.214882 252.329788,53.785969 
	C252.385284,56.552727 252.762695,59.256611 256.936981,59.250168 
z"/>
<path fill="#0B0B0B" opacity="1.000000" stroke="none" 
	d="
M348.392853,41.248581 
	C357.570282,37.101402 364.077271,39.496437 366.261475,48.991997 
	C362.918396,47.755856 360.402161,46.733601 357.821838,45.912712 
	C356.650909,45.540192 355.330841,45.374142 354.124207,45.512856 
	C353.678497,45.564095 352.889252,47.123390 353.075836,47.366611 
	C353.730682,48.220383 354.647797,49.024887 355.636627,49.440571 
	C358.066345,50.462006 360.789093,50.915089 363.035858,52.215515 
	C367.355286,54.715641 367.718994,60.840027 364.019135,64.138062 
	C358.065369,69.445221 347.415802,66.185112 345.345978,58.085339 
	C348.294983,57.554768 351.024811,56.080448 353.590454,59.511440 
	C354.323120,60.491238 356.864258,60.118649 358.576141,60.366192 
	C358.825409,59.617302 359.074677,58.868412 359.323975,58.119522 
	C357.056396,57.102757 354.859680,55.865398 352.508087,55.110271 
	C345.236359,52.775192 343.500336,47.599472 348.392853,41.248581 
z"/>
<path fill="#0C0C0C" opacity="1.000000" stroke="none" 
	d="
M318.957336,45.622467 
	C317.014862,49.713226 314.531036,48.268661 311.824402,46.877464 
	C310.212128,46.048763 308.303833,45.796032 306.528595,45.284374 
	C306.272003,45.970459 306.015411,46.656544 305.758820,47.342625 
	C307.171173,48.181568 308.519135,49.166943 310.011841,49.823185 
	C311.973358,50.685562 314.192932,51.029175 316.045197,52.057579 
	C319.887146,54.190659 321.100800,58.771435 318.700439,62.364758 
	C315.641449,66.944054 310.929443,66.966782 306.160187,66.152306 
	C301.760010,65.400879 299.043304,62.955429 298.709808,57.845093 
	C301.896667,57.493996 304.813049,56.336632 307.149109,59.745872 
	C307.621918,60.435921 309.558258,60.319626 310.781891,60.196804 
	C311.237122,60.151112 312.051727,58.633373 311.901062,58.451740 
	C311.123474,57.514431 310.200989,56.530598 309.113800,56.053253 
	C307.151245,55.191532 304.474182,55.239017 303.119598,53.883446 
	C301.213074,51.975498 299.042419,49.051662 299.204559,46.716354 
	C299.366608,44.381855 301.800354,41.305058 304.049042,40.192623 
	C309.669952,37.411991 315.579376,39.781284 318.957336,45.622467 
z"/>
<path fill="#050505" opacity="1.000000" stroke="none" 
	d="
M323.998596,53.991253 
	C323.998596,49.179245 323.998596,44.862793 323.998596,40.202412 
	C329.874268,40.202412 335.602173,40.202412 341.810608,40.202412 
	C341.882233,41.724915 341.964386,43.471642 342.069489,45.705856 
	C338.680206,45.705856 335.448425,45.705856 332.270203,45.705856 
	C331.852478,49.567947 331.852478,49.567947 340.679138,49.938046 
	C340.679138,51.664295 340.679138,53.409828 340.679138,55.665871 
	C337.963715,55.665871 335.062378,55.665871 332.217651,55.665871 
	C331.809753,59.443348 331.809753,59.443348 342.100189,60.147533 
	C342.194977,61.835388 342.292908,63.579510 342.410278,65.670006 
	C336.347748,65.670006 330.456818,65.670006 323.998596,65.670006 
	C323.998596,62.024342 323.998596,58.255577 323.998596,53.991253 
z"/>
<path fill="#EDEDED" opacity="1.000000" stroke="none" 
	d="
M117.830276,39.961533 
	C125.277969,43.502003 128.322784,49.215096 126.787300,56.112267 
	C125.375000,62.456097 120.075027,66.526543 113.315453,66.458801 
	C105.207458,66.377548 99.706131,60.540997 99.961624,52.291252 
	C100.202820,44.503105 106.154648,38.959789 114.008873,39.277763 
	C115.160141,39.324375 116.298927,39.679150 117.830276,39.961533 
M113.500389,63.064339 
	C120.215675,62.304222 123.838852,58.554359 123.631317,52.579178 
	C123.430817,46.806553 119.566574,42.937443 113.850594,42.786148 
	C107.977669,42.630703 103.999619,46.058613 103.367035,51.819893 
	C102.722725,57.687969 106.154739,61.822147 113.500389,63.064339 
z"/>
<path fill="#E8E8E8" opacity="1.000000" stroke="none" 
	d="
M37.749458,47.960686 
	C38.568260,49.307568 39.282940,50.742840 40.225666,50.912739 
	C42.316986,51.289631 44.542759,50.859482 46.673073,51.107487 
	C47.695129,51.226471 48.624866,52.138477 49.596409,52.691338 
	C49.458485,53.109447 49.320557,53.527554 49.182629,53.945660 
	C45.613277,53.945660 42.043926,53.945660 38.118046,53.945660 
	C38.118046,57.079170 38.118046,59.772324 38.118046,62.928017 
	C41.562592,62.928017 45.019684,62.821926 48.460972,63.008057 
	C49.249340,63.050697 49.983284,64.099564 50.742275,64.685341 
	C50.017254,65.136215 49.301857,65.958359 48.565647,65.977448 
	C43.947712,66.097160 39.325138,66.037979 34.437950,66.037979 
	C34.437950,57.302273 34.437950,48.915890 34.437950,39.825920 
	C39.014725,39.825920 43.591328,39.763947 48.162537,39.893032 
	C48.844753,39.912292 49.501617,40.829170 50.170212,41.330795 
	C49.530327,41.874874 48.912006,42.856304 48.246906,42.889107 
	C44.955750,43.051414 41.652225,42.963036 37.980892,42.963036 
	C37.894962,44.633575 37.821884,46.054264 37.749458,47.960686 
z"/>
<path fill="#EDEDED" opacity="1.000000" stroke="none" 
	d="
M153.491837,61.561493 
	C154.513519,63.088245 155.303909,64.322517 156.445480,66.105148 
	C149.331238,65.817886 149.432968,58.807598 145.184616,56.033020 
	C140.698563,57.985458 141.216629,66.221443 134.220978,66.059914 
	C134.280685,65.560341 134.246765,65.364555 134.326721,65.244736 
	C137.084030,61.111614 141.913361,57.042278 142.028671,52.842506 
	C142.140060,48.786354 137.393036,44.596779 134.780228,40.465816 
	C135.119949,40.078476 135.459671,39.691135 135.799408,39.303795 
	C137.360748,40.647713 139.102325,41.835464 140.436981,43.375797 
	C142.039108,45.224834 143.294510,47.374313 144.732666,49.440563 
	C149.108765,47.021542 148.919296,40.006298 156.052261,39.771305 
	C152.835724,44.473122 150.088028,48.489590 147.290878,52.578362 
	C149.315720,55.526123 151.288132,58.397568 153.491837,61.561493 
z"/>
<path fill="#EBEBEB" opacity="1.000000" stroke="none" 
	d="
M67.409363,65.841263 
	C63.637230,57.273460 60.214302,48.871655 56.791374,40.469845 
	C57.182850,40.114258 57.574326,39.758675 57.965801,39.403088 
	C59.069702,40.475647 60.628357,41.349442 61.199032,42.655067 
	C63.710670,48.401360 65.937180,54.272278 68.425705,60.494850 
	C72.502686,53.544479 73.522751,45.346207 78.148987,39.253040 
	C78.868172,39.651276 79.587364,40.049511 80.306549,40.447742 
	C77.174271,48.414349 74.106606,56.407867 70.815605,64.308357 
	C70.463921,65.152634 68.808945,65.454025 67.409363,65.841263 
z"/>
<path fill="#FFFFFF" opacity="1.000000" stroke="none" 
	d="
M87.889885,43.156487 
	C88.455002,41.748619 89.020073,40.825214 89.585136,39.901810 
	C90.075203,40.733093 90.977219,41.557823 90.990570,42.396698 
	C91.103714,49.506245 91.106033,56.619274 90.980194,63.728401 
	C90.966743,64.488510 89.922005,65.230354 89.355675,65.980667 
	C88.867485,65.149307 87.970734,64.325188 87.955872,63.485447 
	C87.838806,56.872299 87.890259,50.256165 87.889885,43.156487 
z"/>
<path fill="#F6F6F6" opacity="1.000000" stroke="none" 
	d="
M230.445282,47.550125 
	C233.700928,50.670044 234.250107,54.352959 231.436172,56.971119 
	C229.709763,58.577435 225.550491,59.438408 223.629547,58.436703 
	C221.735535,57.449051 220.274155,53.629055 220.427505,51.163963 
	C220.690201,46.940975 224.876160,45.587910 230.445282,47.550125 
z"/>
<path fill="#E1E1E1" opacity="1.000000" stroke="none" 
	d="
M287.482422,48.265480 
	C287.286926,53.574718 283.922302,52.570141 280.557037,52.314262 
	C280.557037,50.164860 280.557037,48.259487 280.557037,45.068241 
	C283.205658,46.180988 285.267090,47.047047 287.482422,48.265480 
z"/>
<path fill="#070707" opacity="1.000000" stroke="none" 
	d="
M113.089287,63.050186 
	C106.154739,61.822147 102.722725,57.687969 103.367035,51.819893 
	C103.999619,46.058613 107.977669,42.630703 113.850594,42.786148 
	C119.566574,42.937443 123.430817,46.806553 123.631317,52.579178 
	C123.838852,58.554359 120.215675,62.304222 113.089287,63.050186 
z"/>
</svg>